# xmcd
#
# Track frame offsets:
#	150
#	11168
#	22250
#	31156
#	43026
#	52949
#	62509
#	72723
#	83844
#	92910
#	103948
#	113733
#	126050
#	136492
#	145042
#	157911
#	166467
#	178268
#	188326
#	200518
#	212428
#	221593
#
# Disc length: 3092 seconds
#
# Revision: 0
# Processed by: cddbd v1.5.2PL0 Copyright (c) Steve Scherf et al.
# Submitted via: EZCDAudioConverter 1.0.6.1
#
DISCID=3a0c1216
DTITLE=Lee Dorsey - Night People The Best of Lee Dorsey
DYEAR=1900
DGENRE=blues
TTITLE0=Ya ya
TTITLE1=Give me you
TTITLE2=Do-re-me
TTITLE3=People gonna talk
TTITLE4=Eenie-meenie-minee-mo
TTITLE5=Behind the 8-ball
TTITLE6=Chin chin
TTITLE7=Mess around
TTITLE8=One and one
TTITLE9=Yum yum
TTITLE10=Ixie dixie pixie pie
TTITLE11=You are my sunshine
TTITLE12=Give me your love
TTITLE13=Hoodlum Joe
TTITLE14=When I met my baby
TTITLE15=Great googa mooga
TTITLE16=Lil Liza Jane
TTITLE17=You're breaking me up
TTITLE18=Hello good looking
TTITLE19=Someday
TTITLE20=As quiet as it's kept
TTITLE21=People sure act funny
EXTD=
EXTT0=
EXTT1=
EXTT2=
EXTT3=
EXTT4=
EXTT5=
EXTT6=
EXTT7=
EXTT8=
EXTT9=
EXTT10=
EXTT11=
EXTT12=
EXTT13=
EXTT14=
EXTT15=
EXTT16=
EXTT17=
EXTT18=
EXTT19=
EXTT20=
EXTT21=
PLAYORDER=
